<svg viewBox="0 0 160 160" xmlns="http://www.w3.org/2000/svg">
    <defs>
        <linearGradient id="orangeGradient" x1="0%" y1="0%" x2="100%" y2="100%">
            <stop offset="0%" stop-color="#FF8C00" />
            <stop offset="100%" stop-color="#E65100" />
        </linearGradient>
    </defs>
    <path transform="translate(80, 80) scale(0.9)" d="M37.5,-64.8C47.8,-53.4,54.7,-38.7,60.6,-23.4C66.5,-8.1,71.4,7.8,67.7,21.8C64,35.8,51.8,47.9,38.1,56.5C24.4,65.1,9.2,70.2,-5.9,71.4C-21,72.6,-36.1,69.9,-48.9,61.1C-61.7,52.3,-72.3,37.4,-76.5,20.8C-80.7,4.2,-78.6,-14,-70.7,-28.9C-62.8,-43.8,-49,-55.4,-34.5,-62.7C-20,-70,-4.7,-73,11,-72C26.7,-71,37.5,-64.8,37.5,-64.8Z" fill="url(#orangeGradient)" />
    <!-- 's' vector path mapped for 140px size centered on 80,74 -->
    <g transform="translate(43, 126) scale(1.27)">
        <path d="M24.09 1.98L24.09 1.98Q21.01 1.98 17.21 1.26Q13.42 0.55 9.85-0.82Q6.27-2.20 3.96-4.07Q1.65-5.94 1.65-8.36L1.65-8.36Q1.65-9.46 2.15-10.84Q2.64-12.21 3.52-13.86Q4.40-15.51 5.72-17.38L5.72-17.38Q6.49-18.48 7.54-19.03Q8.58-19.58 10.01-19.58L10.01-19.58Q11.99-19.58 13.86-18.75Q15.73-17.93 17.60-16.89Q19.47-15.84 21.50-15.02Q23.54-14.19 25.85-14.19L25.85-14.19Q27.94-14.19 28.98-14.63Q30.03-15.07 30.03-15.95L30.03-15.95Q30.03-16.83 29.32-17.38Q28.60-17.93 27.34-18.32Q26.07-18.70 24.42-19.03Q22.77-19.36 20.90-19.80Q19.03-20.24 17.05-20.90L17.05-20.90Q14.52-21.67 12.10-22.93Q9.68-24.20 7.75-26.29Q5.83-28.38 4.67-31.35Q3.52-34.32 3.52-38.61L3.52-38.61Q3.52-44.33 6.16-48.18Q8.80-52.03 13.97-54.01Q19.14-55.99 26.73-55.99L26.73-55.99Q28.60-55.99 30.47-55.77Q32.34-55.55 34.27-55.11Q36.19-54.67 38.12-53.95Q40.04-53.24 42.02-52.36L42.02-52.36Q46.09-50.60 46.20-47.47Q46.31-44.33 43.89-40.92L43.89-40.92Q42.57-38.83 41.20-37.79Q39.82-36.74 38.39-36.74L38.39-36.74Q36.63-36.74 34.54-37.73Q32.45-38.72 30.14-39.71Q27.83-40.70 25.52-40.70L25.52-40.70Q24.20-40.70 23.27-40.42Q22.33-40.15 21.89-39.66Q21.45-39.16 21.45-38.50L21.45-38.50Q21.45-37.29 22.27-36.58Q23.10-35.86 24.48-35.42Q25.85-34.98 27.66-34.65Q29.48-34.32 31.57-33.99L31.57-33.99Q34.43-33.55 37.45-32.62Q40.48-31.68 43.01-29.92Q45.54-28.16 47.08-25.08Q48.62-22 48.62-17.05L48.62-17.05Q48.62-7.70 42.41-2.86Q36.19 1.98 24.09 1.98Z" fill="#FFFFFF"/>
    </g>
</svg>
