<svg width="350" height="120" viewBox="0 0 350 120" xmlns="http://www.w3.org/2000/svg">
    <!-- White organic amoeba blob -->
    <path 
        transform="translate(75, 60) scale(0.68)" 
        d="M37.5,-64.8C47.8,-53.4,54.7,-38.7,60.6,-23.4C66.5,-8.1,71.4,7.8,67.7,21.8C64,35.8,51.8,47.9,38.1,56.5C24.4,65.1,9.2,70.2,-5.9,71.4C-21,72.6,-36.1,69.9,-48.9,61.1C-61.7,52.3,-72.3,37.4,-76.5,20.8C-80.7,4.2,-78.6,-14,-70.7,-28.9C-62.8,-43.8,-49,-55.4,-34.5,-62.7C-20,-70,-4.7,-73,11,-72C26.7,-71,37.5,-64.8,37.5,-64.8Z" 
        fill="#FFFFFF" 
    />
    
    <!-- 's' in Fredoka Bold — vector outline, dark navy, centered on blob -->
    <g transform="translate(51, 97)">
        <path d="M24.09 1.98L24.09 1.98Q21.01 1.98 17.21 1.26Q13.42 0.55 9.85-0.82Q6.27-2.20 3.96-4.07Q1.65-5.94 1.65-8.36L1.65-8.36Q1.65-9.46 2.15-10.84Q2.64-12.21 3.52-13.86Q4.40-15.51 5.72-17.38L5.72-17.38Q6.49-18.48 7.54-19.03Q8.58-19.58 10.01-19.58L10.01-19.58Q11.99-19.58 13.86-18.75Q15.73-17.93 17.60-16.89Q19.47-15.84 21.50-15.02Q23.54-14.19 25.85-14.19L25.85-14.19Q27.94-14.19 28.98-14.63Q30.03-15.07 30.03-15.95L30.03-15.95Q30.03-16.83 29.32-17.38Q28.60-17.93 27.34-18.32Q26.07-18.70 24.42-19.03Q22.77-19.36 20.90-19.80Q19.03-20.24 17.05-20.90L17.05-20.90Q14.52-21.67 12.10-22.93Q9.68-24.20 7.75-26.29Q5.83-28.38 4.67-31.35Q3.52-34.32 3.52-38.61L3.52-38.61Q3.52-44.33 6.16-48.18Q8.80-52.03 13.97-54.01Q19.14-55.99 26.73-55.99L26.73-55.99Q28.60-55.99 30.47-55.77Q32.34-55.55 34.27-55.11Q36.19-54.67 38.12-53.95Q40.04-53.24 42.02-52.36L42.02-52.36Q46.09-50.60 46.20-47.47Q46.31-44.33 43.89-40.92L43.89-40.92Q42.57-38.83 41.20-37.79Q39.82-36.74 38.39-36.74L38.39-36.74Q36.63-36.74 34.54-37.73Q32.45-38.72 30.14-39.71Q27.83-40.70 25.52-40.70L25.52-40.70Q24.20-40.70 23.27-40.42Q22.33-40.15 21.89-39.66Q21.45-39.16 21.45-38.50L21.45-38.50Q21.45-37.29 22.27-36.58Q23.10-35.86 24.48-35.42Q25.85-34.98 27.66-34.65Q29.48-34.32 31.57-33.99L31.57-33.99Q34.43-33.55 37.45-32.62Q40.48-31.68 43.01-29.92Q45.54-28.16 47.08-25.08Q48.62-22 48.62-17.05L48.62-17.05Q48.62-7.70 42.41-2.86Q36.19 1.98 24.09 1.98Z" fill="#0F172A"/>
    </g>
    
    <!-- 'nabb' in Fredoka Bold — vector outline, dark navy -->
    <g transform="translate(124, 93) scale(1,1)">
        <path d="M9.12 0.61L9.12 0.61Q5.70 0.61 4.26-0.42Q2.81-1.44 2.55-3.04Q2.28-4.64 2.28-6.31L2.28-6.31L2.28-31.31Q2.28-32.98 2.58-34.50Q2.89-36.02 4.33-36.97Q5.78-37.92 9.20-37.92L9.20-37.92Q12.31-37.92 13.72-37.13Q15.12-36.33 15.50-35.19Q15.88-34.05 15.85-33.10Q15.81-32.15 15.96-31.92L15.96-31.92L15.35-31.46Q15.28-32.60 16.23-33.74Q17.18-34.88 18.73-35.83Q20.29-36.78 22.08-37.35Q23.86-37.92 25.46-37.92L25.46-37.92Q29.26-37.92 32.15-36.48Q35.04-35.04 36.97-32.41Q38.91-29.79 39.90-26.30Q40.89-22.80 40.89-18.70L40.89-18.70L40.89-6.23Q40.89-4.56 40.58-2.96Q40.28-1.37 38.87-0.38Q37.47 0.61 33.97 0.61L33.97 0.61Q30.48 0.61 29.03-0.42Q27.59-1.44 27.28-3.04Q26.98-4.64 26.98-6.31L26.98-6.31L26.98-18.70Q26.98-20.44 26.33-21.66Q25.69-22.88 24.51-23.52Q23.33-24.17 21.58-24.17L21.58-24.17Q19.91-24.17 18.66-23.48Q17.40-22.80 16.72-21.58Q16.04-20.37 16.04-18.70L16.04-18.70L16.04-6.23Q16.04-4.56 15.73-2.96Q15.43-1.37 14.02-0.38Q12.62 0.61 9.12 0.61ZM76.15 0.53L76.15 0.53Q72.73 0.53 71.10-0.61Q69.46-1.75 69.54-3.19L69.54-3.19L70.60-3.19Q70.22-2.66 69.12-1.79Q68.02-0.91 66.20-0.19Q64.37 0.53 61.71 0.53L61.71 0.53Q58.29 0.53 55.14-1.03Q51.98-2.58 49.51-5.32Q47.04-8.06 45.60-11.51Q44.16-14.97 44.16-18.77L44.16-18.77Q44.16-22.50 45.60-25.92Q47.04-29.34 49.55-32.03Q52.06-34.73 55.18-36.29Q58.29-37.85 61.71-37.85L61.71-37.85Q64.30-37.85 66.08-37.09Q67.87-36.33 68.97-35.42Q70.07-34.50 70.45-33.90L70.45-33.90L69.62-33.90Q69.54-35.80 71.17-36.86Q72.81-37.92 76.23-37.92L76.23-37.92Q79.65-37.92 81.05-36.90Q82.46-35.87 82.76-34.28Q83.07-32.68 83.07-31.01L83.07-31.01L83.07-6.31Q83.07-4.64 82.76-3.04Q82.46-1.44 81.05-0.46Q79.65 0.53 76.15 0.53ZM63.61-13.22L63.61-13.22Q65.06-13.22 66.23-13.98Q67.41-14.74 68.13-16.00Q68.86-17.25 68.86-18.70L68.86-18.70Q68.86-20.22 68.13-21.43Q67.41-22.65 66.20-23.41Q64.98-24.17 63.46-24.17L63.46-24.17Q61.94-24.17 60.69-23.41Q59.43-22.65 58.67-21.39Q57.91-20.14 57.91-18.62L57.91-18.62Q57.91-17.18 58.71-15.96Q59.51-14.74 60.80-13.98Q62.09-13.22 63.61-13.22ZM108.76 0.53L108.76 0.53Q105.03 0.53 102.30-1.10Q99.56-2.74 97.81-5.51Q96.06-8.28 95.23-11.74Q94.39-15.20 94.47-18.92L94.47-18.92Q94.54-22.57 95.42-25.99Q96.29-29.41 98.04-32.07Q99.79-34.73 102.45-36.29Q105.11-37.85 108.76-37.85L108.76-37.85Q112.10-37.85 115.25-36.25Q118.41-34.66 120.92-31.96Q123.42-29.26 124.87-25.84Q126.31-22.42 126.31-18.77L126.31-18.77Q126.31-14.97 124.87-11.48Q123.42-7.98 120.95-5.28Q118.48-2.58 115.33-1.03Q112.18 0.53 108.76 0.53ZM106.93-13.15L106.93-13.15Q108.45-13.15 109.71-13.91Q110.96-14.67 111.72-15.92Q112.48-17.18 112.48-18.62L112.48-18.62Q112.48-20.14 111.76-21.39Q111.04-22.65 109.78-23.37Q108.53-24.09 107.01-24.09L107.01-24.09Q105.49-24.09 104.23-23.33Q102.98-22.57 102.26-21.36Q101.54-20.14 101.54-18.62L101.54-18.62Q101.54-17.18 102.30-15.92Q103.06-14.67 104.27-13.91Q105.49-13.15 106.93-13.15ZM94.47 0.61L94.47 0.61Q91.05 0.61 89.60-0.42Q88.16-1.44 87.89-3.04Q87.63-4.64 87.63-6.31L87.63-6.31L87.63-48.49Q87.63-50.24 87.93-51.79Q88.24-53.35 89.68-54.34Q91.12-55.33 94.54-55.33L94.54-55.33Q97.96-55.33 99.33-54.30Q100.70-53.28 100.93-51.68Q101.16-50.08 101.08-48.41L101.08-48.41L101.08-3.19Q100.55-1.22 99.07-0.30Q97.58 0.61 94.47 0.61ZM150.86 0.53L150.86 0.53Q147.14 0.53 144.40-1.10Q141.66-2.74 139.92-5.51Q138.17-8.28 137.33-11.74Q136.50-15.20 136.57-18.92L136.57-18.92Q136.65-22.57 137.52-25.99Q138.40-29.41 140.14-32.07Q141.89-34.73 144.55-36.29Q147.21-37.85 150.86-37.85L150.86-37.85Q154.20-37.85 157.36-36.25Q160.51-34.66 163.02-31.96Q165.53-29.26 166.97-25.84Q168.42-22.42 168.42-18.77L168.42-18.77Q168.42-14.97 166.97-11.48Q165.53-7.98 163.06-5.28Q160.59-2.58 157.43-1.03Q154.28 0.53 150.86 0.53ZM149.04-13.15L149.04-13.15Q150.56-13.15 151.81-13.91Q153.06-14.67 153.82-15.92Q154.58-17.18 154.58-18.62L154.58-18.62Q154.58-20.14 153.86-21.39Q153.14-22.65 151.89-23.37Q150.63-24.09 149.11-24.09L149.11-24.09Q147.59-24.09 146.34-23.33Q145.08-22.57 144.36-21.36Q143.64-20.14 143.64-18.62L143.64-18.62Q143.64-17.18 144.40-15.92Q145.16-14.67 146.38-13.91Q147.59-13.15 149.04-13.15ZM136.57 0.61L136.57 0.61Q133.15 0.61 131.71-0.42Q130.26-1.44 130.00-3.04Q129.73-4.64 129.73-6.31L129.73-6.31L129.73-48.49Q129.73-50.24 130.04-51.79Q130.34-53.35 131.78-54.34Q133.23-55.33 136.65-55.33L136.65-55.33Q140.07-55.33 141.44-54.30Q142.80-53.28 143.03-51.68Q143.26-50.08 143.18-48.41L143.18-48.41L143.18-3.19Q142.65-1.22 141.17-0.30Q139.69 0.61 136.57 0.61Z" fill="#0F172A"/>
    </g>
</svg>