<svg viewBox="0 0 350 120" xmlns="http://www.w3.org/2000/svg">
    <defs>
        <style>
            @import url('https://fonts.googleapis.com/css2?family=Fredoka:wght@600;700&amp;display=swap');
            .font-rounded { font-family: 'Fredoka', sans-serif; font-weight: 700; }
        </style>
    </defs>
    <path transform="translate(80, 60) scale(0.65)" d="M37.5,-64.8C47.8,-53.4,54.7,-38.7,60.6,-23.4C66.5,-8.1,71.4,7.8,67.7,21.8C64,35.8,51.8,47.9,38.1,56.5C24.4,65.1,9.2,70.2,-5.9,71.4C-21,72.6,-36.1,69.9,-48.9,61.1C-61.7,52.3,-72.3,37.4,-76.5,20.8C-80.7,4.2,-78.6,-14,-70.7,-28.9C-62.8,-43.8,-49,-55.4,-34.5,-62.7C-20,-70,-4.7,-73,11,-72C26.7,-71,37.5,-64.8,37.5,-64.8Z" fill="#FFFFFF" />
    <text x="80" y="56" dominant-baseline="middle" text-anchor="middle" class="font-rounded" font-size="110" fill="#111827">s</text>
    <text x="128" y="64" dominant-baseline="middle" text-anchor="start" class="font-rounded" font-size="76" fill="#FFFFFF" letter-spacing="-2">nabb</text>
</svg>
